<svg xmlns="http://www.w3.org/2000/svg" aria-hidden="true" style="position:absolute;width:0;height:0;overflow:hidden"><defs><symbol id="icon-envelope-2" viewBox="0 0 43 32"><path fill="#757575" d="M38.667 0H4C1.794 0 0 1.794 0 4v24c0 2.206 1.794 4 4 4h34.667c2.206 0 4-1.794 4-4V4c0-2.206-1.794-4-4-4zm0 2.667c.181 0 .353.038.511.103L21.334 18.236 3.49 2.77a1.32 1.32 0 0 1 .511-.103h34.667zm0 26.666H4A1.334 1.334 0 0 1 2.667 28V5.587L20.46 21.008a1.335 1.335 0 0 0 1.748 0L40.001 5.587V28c0 .736-.598 1.333-1.333 1.333z" style="fill:var(--color1, #757575)"/></symbol><symbol id="icon-instagram-3" viewBox="0 0 32 32"><path fill="#afb1b8" d="M31.969 9.408c-.075-1.7-.35-2.869-.744-3.882a7.806 7.806 0 0 0-1.851-2.838A7.867 7.867 0 0 0 26.542.844C25.523.45 24.36.175 22.66.1 20.947.019 20.403 0 16.059 0s-4.888.019-6.595.094c-1.7.075-2.869.35-3.882.744a7.803 7.803 0 0 0-2.838 1.85A7.867 7.867 0 0 0 .9 5.52C.506 6.539.231 7.702.156 9.402c-.081 1.713-.1 2.257-.1 6.601s.019 4.888.094 6.595c.075 1.7.35 2.869.744 3.882a7.895 7.895 0 0 0 1.85 2.838 7.867 7.867 0 0 0 2.832 1.844c1.019.394 2.182.669 3.882.744 1.706.075 2.25.094 6.595.094s4.888-.019 6.595-.094c1.7-.075 2.869-.35 3.882-.744a8.184 8.184 0 0 0 4.682-4.682c.394-1.019.669-2.182.744-3.882.075-1.707.094-2.251.094-6.595s-.006-4.888-.081-6.595zm-2.882 13.065c-.069 1.563-.331 2.407-.55 2.969a5.31 5.31 0 0 1-3.038 3.038c-.563.219-1.413.481-2.969.55-1.688.075-2.194.094-6.464.094s-4.782-.019-6.464-.094c-1.563-.069-2.407-.331-2.969-.55a4.926 4.926 0 0 1-1.838-1.194 4.974 4.974 0 0 1-1.194-1.838c-.219-.563-.481-1.413-.55-2.969-.075-1.688-.094-2.194-.094-6.464s.019-4.782.094-6.464c.069-1.563.331-2.407.55-2.969a4.868 4.868 0 0 1 1.2-1.838A4.974 4.974 0 0 1 6.639 3.55c.563-.219 1.413-.481 2.969-.55 1.688-.075 2.194-.094 6.464-.094 4.276 0 4.782.019 6.464.094 1.563.069 2.407.331 2.969.55a4.914 4.914 0 0 1 1.838 1.194 4.974 4.974 0 0 1 1.194 1.838c.219.563.481 1.413.55 2.969.075 1.688.094 2.194.094 6.464s-.019 4.77-.094 6.458z" style="fill:var(--color2, #afb1b8)"/><path fill="#afb1b8" d="M16.059 7.783c-4.538 0-8.22 3.682-8.22 8.22s3.682 8.22 8.22 8.22 8.22-3.682 8.22-8.22-3.682-8.22-8.22-8.22zm0 13.552a5.333 5.333 0 0 1 0-10.664 5.333 5.333 0 0 1 0 10.664zM26.524 7.458a1.919 1.919 0 1 1-3.838 0 1.919 1.919 0 0 1 3.838 0z" style="fill:var(--color2, #afb1b8)"/></symbol><symbol id="icon-client-6" viewBox="0 0 32 32"><path fill="#afb1b8" d="M16.18 15.549a1.001 1.001 0 0 1-.206-.678v-.984c0-.302.068-.531.205-.687s.372-.235.705-.234c.313 0 .535.067.666.2.143.17.213.378.197.588v.231h-.56v-.234a1.171 1.171 0 0 0-.016-.229.22.22 0 0 0-.08-.136.323.323 0 0 0-.203-.053.34.34 0 0 0-.213.056.264.264 0 0 0-.093.15 1.17 1.17 0 0 0-.022.243v1.194a.608.608 0 0 0 .072.335c.028.035.067.064.112.081s.095.024.144.019a.302.302 0 0 0 .198-.054.235.235 0 0 0 .083-.145c.013-.079.019-.159.017-.239v-.242h.56v.221a.894.894 0 0 1-.194.618c-.129.146-.348.219-.67.219s-.566-.078-.704-.24zM18.511 15.559c-.141-.153-.212-.376-.212-.671v-1.035c0-.292.071-.513.212-.663s.378-.225.709-.224c.329 0 .564.075.706.224s.213.371.213.663v1.035c0 .292-.072.516-.216.67s-.378.231-.704.231c-.326 0-.567-.078-.709-.23zm.97-.248a.57.57 0 0 0 .067-.306v-1.267a.566.566 0 0 0-.066-.3c-.028-.036-.068-.065-.114-.082s-.097-.024-.148-.018c-.05-.006-.102 0-.148.018s-.086.046-.115.082a.549.549 0 0 0-.067.3v1.273a.57.57 0 0 0 .067.306.363.363 0 0 0 .262.103.363.363 0 0 0 .262-.103v-.006zM20.813 12.996h.603l.453 1.909.464-1.909h.586l.059 2.756h-.433l-.046-1.915-.447 1.915h-.348l-.464-1.922-.043 1.922h-.438l.054-2.756zM23.654 12.996h.939c.541 0 .811.261.811.782 0 .5-.285.749-.854.748h-.32v1.225h-.58l.003-2.756zm.802 1.177c.057.006.115.002.17-.013s.106-.04.148-.074a.444.444 0 0 0 .083-.311.846.846 0 0 0-.028-.25c-.008-.027-.023-.053-.043-.076s-.045-.041-.073-.055a.608.608 0 0 0-.258-.044h-.225v.823h.225zM26.24 12.996h.622l.639 2.756h-.54l-.126-.635h-.555l-.13.635h-.548l.639-2.756zm.532 1.801-.217-1.157-.217 1.157h.433zM28.016 12.996h.406l.777 1.572v-1.572h.481v2.756h-.386l-.781-1.641v1.641h-.497l.001-2.756zM30.806 14.701 30.16 13h.544l.394 1.093.37-1.093H32l-.637 1.701v1.051h-.556v-1.051zM17.075 16.956v.144h-.473v1.12h-.198V17.1h-.475v-.144h1.146zM18.557 18.22h-.153a.064.064 0 0 1-.043-.012.066.066 0 0 1-.026-.029l-.137-.3h-.656l-.137.3a.08.08 0 0 1-.021.034.07.07 0 0 1-.043.012h-.153l.58-1.264h.202l.586 1.259zm-.959-.469h.547l-.232-.514a1.06 1.06 0 0 1-.043-.119l-.022.067-.021.053-.23.513zM19.557 18.096a.99.99 0 0 0 .109 0 .75.75 0 0 0 .176-.038c.026-.009.051-.02.078-.031v-.284h-.232c-.006 0-.011 0-.017-.002s-.01-.004-.014-.008c-.004-.003-.007-.006-.009-.01s-.003-.008-.003-.013v-.097h.45v.484a.849.849 0 0 1-.245.103 1 1 0 0 1-.145.026 1.911 1.911 0 0 1-.169.008.872.872 0 0 1-.292-.047.708.708 0 0 1-.232-.132.609.609 0 0 1-.149-.2.615.615 0 0 1-.053-.262.576.576 0 0 1 .201-.464.696.696 0 0 1 .232-.131.986.986 0 0 1 .311-.047c.054 0 .108.004.161.011a.813.813 0 0 1 .254.082c.037.02.069.042.101.066l-.056.078c-.004.007-.011.013-.019.017s-.017.007-.026.007a.075.075 0 0 1-.036-.01.822.822 0 0 1-.057-.03.764.764 0 0 0-.556-.038.438.438 0 0 0-.278.257.588.588 0 0 0 0 .421.495.495 0 0 0 .515.284zM21.404 18.076h.633v.144h-.826v-1.264h.198l-.005 1.12zM22.695 18.22h-.198v-1.264h.198v1.264zM23.432 16.962a.1.1 0 0 1 .03.023l.847.953a.338.338 0 0 1 0-.045V16.951h.173v1.269h-.1a.089.089 0 0 1-.043-.007.092.092 0 0 1-.031-.024l-.846-.952v.983h-.166v-1.264h.103c.011 0 .022.002.032.006zM25.942 16.956v.139h-.702v.417h.569v.134h-.569v.431h.702v.139h-.906v-1.261h.906zM5.173 9.151l8.801 2.157v7.56l-8.801-2.156V9.151zm-.565-.644v8.572l9.928 2.435v-8.571L4.608 8.508z" style="fill:var(--color2, #afb1b8)"/><path fill="#afb1b8" d="M9.93 23.493 0 21.056v-8.571l9.93 2.436v8.572zM4.773 9.054l8.686 2.13-3.694 3.19-8.687-2.131 3.695-3.189zm-.165-.547L0 12.485l9.93 2.436 4.607-3.978-9.928-2.435zM10.488 23.011l4.048-3.496-4.049-.994v4.49z" style="fill:var(--color2, #afb1b8)"/></symbol><symbol id="icon-client-5" viewBox="0 0 32 32"><path fill="#afb1b8" d="M3.15 23.215a.706.706 0 0 1 .18.478c.006.113-.016.227-.064.331s-.121.198-.214.273c-.232.16-.519.239-.809.221H.821v-3.032h1.393c.275-.017.548.054.772.201.09.069.161.156.208.254s.068.205.062.313a.664.664 0 0 1-.162.464.77.77 0 0 1-.424.237.818.818 0 0 1 .48.259zm-1.668-.457h.595a.606.606 0 0 0 .379-.101c.045-.037.08-.083.102-.134s.031-.107.026-.162c.004-.055-.005-.11-.027-.161s-.056-.097-.099-.135a.612.612 0 0 0-.39-.102h-.586v.795zm1.032 1.162c.048-.038.085-.085.11-.139s.035-.111.031-.169c.004-.058-.007-.117-.033-.171s-.063-.102-.112-.14a.657.657 0 0 0-.404-.11h-.624v.834h.632a.674.674 0 0 0 .4-.105zM5.997 24.519l-.775-1.185h-.291v1.185h-.667v-3.032h1.262c.318-.02.632.072.878.258.176.165.283.381.3.611s-.056.458-.206.643a1.054 1.054 0 0 1-.602.308l.825 1.212h-.725zm-1.066-1.598h.545c.379 0 .568-.153.568-.459.004-.063-.006-.125-.03-.184s-.061-.112-.109-.157a.631.631 0 0 0-.429-.123h-.552l.006.923zM9.639 23.908H8.311l-.234.61h-.699l1.22-2.998h.755l1.215 2.998h-.699l-.23-.61zm-.178-.459-.485-1.28-.485 1.28h.971zM14.199 24.519h-.662l-1.483-2.062v2.062h-.66v-3.032h.66l1.483 2.074v-2.074h.662v3.032zM17.975 23.793a1.38 1.38 0 0 1-.599.535 2.1 2.1 0 0 1-.93.191h-1.178v-3.032h1.178c.322-.008.641.056.93.187.253.117.462.301.599.529.136.247.207.519.207.795s-.071.549-.207.795zm-.757-.073c.189-.201.293-.458.293-.724s-.104-.522-.293-.724a1.222 1.222 0 0 0-.828-.258h-.459v1.962h.459c.302.017.6-.075.828-.258zM10.053 4.623s8.539 2.952 8.358 7.223v7.225s-8.533-2.953-8.355-7.225l-.003-7.223zM26.019 17.38a12.388 12.388 0 0 1 5.425-1.831v-2.262c-2.244.792-4.147 2.227-5.425 4.092z" style="fill:var(--color2, #afb1b8)"/><path fill="#afb1b8" d="M25.05 18.061c1.32-2.434 3.608-4.311 6.394-5.247V6.297S19.283 10.502 19.54 16.584V26.87s.542-.188 1.394-.541c0-.329 0-.661.039-.994.252-2.824 1.718-5.441 4.076-7.275z" style="fill:var(--color2, #afb1b8)"/><path fill="#afb1b8" d="M23.893 21.882a9.825 9.825 0 0 1 .425-2.106c-1.468 1.584-2.358 3.55-2.543 5.621a8.808 8.808 0 0 0-.032.592 37.016 37.016 0 0 0 2.339-1.128 9.776 9.776 0 0 1-.189-2.978zM24.377 21.919a9.323 9.323 0 0 0 .151 2.697c3.322-1.82 7.056-4.633 6.912-8.032v-.296c-2.374.243-4.595 1.193-6.322 2.704a9.44 9.44 0 0 0-.741 2.927z" style="fill:var(--color2, #afb1b8)"/></symbol><symbol id="icon-client-4" viewBox="0 0 32 32"><path fill="#2196f3" d="M6.504 11.966h-.001c-1.087 0-1.969.784-1.969 1.75v.001c0 .966.881 1.75 1.969 1.75h.001c1.087 0 1.969-.784 1.969-1.75v-.001c0-.966-.881-1.75-1.969-1.75zM21.035 11.407c-.003-1.342-.604-2.628-1.672-3.578s-2.515-1.484-4.025-1.487c-1.511.002-2.959.537-4.027 1.486s-1.67 2.236-1.673 3.578v7.401s11.396-1.128 11.397-7.4v-.001zM.543 21.237c.003.934.421 1.829 1.164 2.489s1.75 1.033 2.801 1.036c1.05-.003 2.057-.375 2.8-1.035s1.162-1.555 1.165-2.488v-5.15s-7.929.785-7.929 5.149zm3.965.923c-.205 0-.406-.054-.577-.156s-.304-.245-.382-.414c-.079-.169-.099-.354-.059-.533s.139-.343.284-.472c.145-.129.33-.217.532-.253s.41-.017.6.052c.19.07.352.188.466.34s.175.33.175.513c.001.122-.026.242-.078.354s-.128.214-.225.301c-.096.086-.211.154-.337.201s-.262.071-.398.071v-.003zM12.521 21.651h-.765v.79h-.399v-1.934h1.259v.323h-.861v.499h.765v.321zm1.916-.133c0 .19-.034.358-.101.501a.763.763 0 0 1-.719.449.768.768 0 0 1-.721-.445 1.139 1.139 0 0 1-.105-.494v-.096c0-.19.034-.358.102-.502a.765.765 0 0 1 .721-.45c.161 0 .304.039.429.117.126.077.223.188.291.333s.104.311.104.501v.086zm-.404-.087c0-.203-.036-.357-.109-.462s-.176-.158-.311-.158c-.134 0-.237.052-.31.157s-.109.256-.11.457v.094c0 .197.036.351.109.46s.177.163.313.163c.134 0 .237-.052.308-.157s.108-.259.109-.46v-.094zm1.696.503c0-.075-.027-.133-.08-.173s-.149-.083-.287-.128a1.979 1.979 0 0 1-.328-.133c-.22-.119-.329-.279-.329-.48 0-.104.029-.197.088-.279.059-.082.144-.147.254-.193s.235-.069.372-.069c.138 0 .261.025.369.076s.192.12.251.211c.06.091.09.195.09.311h-.399c0-.089-.028-.157-.084-.206s-.134-.074-.235-.074c-.097 0-.173.021-.227.062s-.081.095-.081.162c0 .063.031.116.094.158s.157.082.28.12c.227.068.392.153.495.254s.155.227.155.377a.465.465 0 0 1-.19.394c-.127.095-.297.142-.511.142-.149 0-.284-.027-.406-.081s-.216-.13-.28-.225a.576.576 0 0 1-.096-.329h.4c0 .214.127.32.383.32.095 0 .169-.019.222-.057s.08-.093.08-.162zm2.127-1.104h-.592v1.611h-.399V20.83h-.584v-.323h1.576v.323zm1.392.774h-.765v.518h.898v.32h-1.296v-1.934h1.294v.323h-.895v.461h.765v.312zm1.083.129h-.317v.708h-.399v-1.934h.719c.229 0 .405.051.529.153s.186.246.186.432c0 .132-.029.242-.086.331s-.143.158-.259.21l.418.79v.019h-.428l-.363-.708zm-.318-.322h.321c.1 0 .178-.025.232-.076s.082-.122.082-.211c0-.091-.026-.163-.078-.215s-.131-.078-.238-.078h-.32v.58zm2.415.349v.681h-.399v-1.934h.755c.145 0 .273.027.383.08s.196.129.255.227a.63.63 0 0 1 .089.333c0 .189-.065.339-.195.449s-.309.163-.538.163h-.349zm0-.323h.356c.105 0 .186-.025.24-.074s.084-.12.084-.213c0-.095-.028-.171-.084-.23s-.133-.089-.231-.09h-.365v.607zm2.521.167h-.765v.518h.898v.32h-1.296v-1.934h1.294v.323h-.895v.461h.765v.312zm1.849-.774h-.592v1.611h-.399V20.83h-.584v-.323h1.576v.323zm1.393.774h-.765v.518h.898v.32h-1.296v-1.934h1.294v.323h-.895v.461h.765v.312zm1.082.129h-.317v.708h-.399v-1.934h.719c.229 0 .405.051.529.153s.186.246.186.432c0 .132-.029.242-.086.331s-.143.158-.259.21l.418.79v.019h-.428l-.363-.708zm-.317-.322h.321c.1 0 .178-.025.232-.076s.082-.122.082-.211c0-.091-.026-.163-.078-.215s-.131-.078-.238-.078h-.32v.58zm2.342.523c0-.075-.027-.133-.08-.173s-.149-.083-.287-.128a1.979 1.979 0 0 1-.328-.133c-.22-.119-.329-.279-.329-.48 0-.104.029-.197.088-.279.059-.082.144-.147.254-.193s.235-.069.372-.069c.138 0 .261.025.369.076s.192.12.251.211c.06.091.09.195.09.311h-.399c0-.089-.028-.157-.084-.206s-.134-.074-.235-.074c-.097 0-.173.021-.227.062s-.081.095-.081.162c0 .063.031.116.094.158s.157.082.28.12c.227.068.392.153.495.254s.155.227.155.377a.465.465 0 0 1-.19.394c-.127.095-.297.142-.511.142-.149 0-.284-.027-.407-.081s-.216-.13-.28-.225a.576.576 0 0 1-.096-.329h.4c0 .214.128.32.383.32.095 0 .169-.019.222-.057s.08-.093.08-.162z" style="fill:var(--color3, #2196f3)"/></symbol><symbol id="icon-client-3" viewBox="0 0 32 32"><path fill="#afb1b8" d="M6.558 26.868c.009 0 .018.002.026.006s.016.008.022.013l.124.119a1.009 1.009 0 0 1-.349.225 1.358 1.358 0 0 1-.495.081 1.31 1.31 0 0 1-.466-.076.963.963 0 0 1-.577-.542 1.098 1.098 0 0 1-.079-.422.982.982 0 0 1 .325-.752c.106-.093.233-.166.372-.214.153-.051.315-.077.479-.076.152-.003.303.02.445.069.123.047.236.111.334.19l-.104.127a.116.116 0 0 1-.026.023.074.074 0 0 1-.042.009.112.112 0 0 1-.045-.013l-.056-.034-.078-.043a1.028 1.028 0 0 0-.104-.042 1.04 1.04 0 0 0-.326-.047.998.998 0 0 0-.344.057.778.778 0 0 0-.27.159.75.75 0 0 0-.176.253.823.823 0 0 0-.063.334.87.87 0 0 0 .063.34.735.735 0 0 0 .172.252.705.705 0 0 0 .258.157c.101.037.21.055.319.054.063.001.126-.003.189-.011a.744.744 0 0 0 .41-.175.102.102 0 0 1 .059-.022zM10.142 26.272c.002.143-.026.285-.084.419-.051.122-.13.233-.234.325s-.228.166-.366.214c-.303.101-.64.101-.943 0a1.11 1.11 0 0 1-.365-.214.957.957 0 0 1-.236-.329 1.092 1.092 0 0 1 0-.84.987.987 0 0 1 .236-.331c.104-.09.228-.16.365-.206.303-.102.64-.102.943 0 .138.049.262.122.366.214a.96.96 0 0 1 .234.325c.057.135.086.278.084.422zm-.326 0a.89.89 0 0 0-.059-.337.692.692 0 0 0-.428-.411 1.102 1.102 0 0 0-.686 0 .735.735 0 0 0-.262.159.662.662 0 0 0-.167.252.988.988 0 0 0 0 .674.694.694 0 0 0 .429.41c.221.072.464.072.686 0a.692.692 0 0 0 .428-.41.888.888 0 0 0 .059-.337zM12.586 26.626l.032.076.035-.076a.6.6 0 0 1 .041-.074l.793-1.252c.016-.022.029-.035.045-.039a.203.203 0 0 1 .065-.007h.234v2.037h-.278v-1.56a.41.41 0 0 1 0-.07l-.797 1.27c-.01.019-.026.035-.047.047s-.044.017-.068.017h-.045c-.024 0-.048-.006-.069-.016s-.037-.028-.047-.047l-.82-1.277V27.29h-.268v-2.033h.234a.203.203 0 0 1 .065.007.094.094 0 0 1 .044.039l.81 1.254a.472.472 0 0 1 .041.073zM15.57 26.524v.763h-.31v-2.034h.692c.13-.002.261.013.386.044a.769.769 0 0 1 .273.127.521.521 0 0 1 .155.199.618.618 0 0 1 .053.26.572.572 0 0 1-.224.464.798.798 0 0 1-.274.135c-.12.034-.247.05-.374.047l-.375-.006zm0-.218h.375a.873.873 0 0 0 .24-.031.52.52 0 0 0 .174-.088.393.393 0 0 0 .142-.306c.003-.057-.007-.113-.031-.166s-.061-.1-.108-.139a.672.672 0 0 0-.417-.109h-.375v.838zM19.74 27.29h-.245a.118.118 0 0 1-.069-.019.14.14 0 0 1-.041-.047l-.211-.492h-1.06l-.218.492a.115.115 0 0 1-.109.066h-.245l.931-2.037h.322l.943 2.037zm-1.536-.756h.875l-.369-.829a1.47 1.47 0 0 1-.07-.192l-.035.107a.966.966 0 0 1-.034.086l-.366.828zM21.08 25.263a.133.133 0 0 1 .047.037l1.358 1.535v-1.581h.278v2.037h-.155a.148.148 0 0 1-.063-.012.17.17 0 0 1-.05-.038l-1.356-1.534a.817.817 0 0 1 0 .07v1.514h-.278v-2.037h.164c.019 0 .038.003.056.009zM25.049 26.48v.809h-.31v-.809l-.858-1.227h.278a.113.113 0 0 1 .067.018.183.183 0 0 1 .042.046l.537.791a1.152 1.152 0 0 1 .095.18l.041-.088a.617.617 0 0 1 .053-.093l.529-.797a.186.186 0 0 1 .041-.043.104.104 0 0 1 .067-.02h.281l-.86 1.232zM12.433 21.836c.135.015.271.027.41.038 2.093-.814 3.864-2.145 5.091-3.828s1.856-3.643 1.808-5.635l-2.307-2.005c.469 2.121.249 4.313-.634 6.332s-2.396 3.784-4.368 5.098z" style="fill:var(--color2, #afb1b8)"/><path fill="#afb1b8" d="m11.609 21.742.062.011c2.107-1.309 3.714-3.139 4.613-5.25s1.047-4.409.426-6.595l-3.286-2.855c1.329 2.346 1.864 4.973 1.542 7.573s-1.485 5.068-3.358 7.116zM22.753 14.764c-.558 2.189-1.914 4.162-3.866 5.628-.57.431-1.185.814-1.837 1.145 1.589-.406 3.05-1.123 4.27-2.097s2.166-2.178 2.765-3.521l-1.333-1.157z" style="fill:var(--color2, #afb1b8)"/><path fill="#afb1b8" d="m22.23 14.441-1.898-1.649c-.036 1.879-.651 3.716-1.781 5.319s-2.733 2.914-4.643 3.796h.009c.426 0 .851-.022 1.274-.066 1.785-.633 3.362-1.64 4.59-2.932s2.069-2.827 2.448-4.47zM11.884 5.85 9.62 3.88c-2.024.679-3.764 1.873-4.993 3.427s-1.891 3.392-1.897 5.277c.007 2.083.814 4.104 2.292 5.743s3.544 2.803 5.869 3.308c2.076-2.198 3.291-4.913 3.47-7.752s-.69-5.653-2.478-8.033zM27.46 14.138c-.008-2.471-1.141-4.839-3.153-6.586s-4.736-2.732-7.58-2.739a12.084 12.084 0 0 0-3.843.621l13.858 12.041a8.156 8.156 0 0 0 .716-3.337z" style="fill:var(--color2, #afb1b8)"/></symbol><symbol id="icon-client-2" viewBox="0 0 32 32"><path fill="#afb1b8" d="M14.546 3.875h-.069a8.39 8.39 0 0 0-.317-.011h-.229a12.386 12.386 0 0 0-.653.015A14.256 14.256 0 0 0 7.98 5.23l-.218.105V16.49l.51-.173c.447-.154.924-.292 1.418-.42a17.323 17.323 0 0 1 4.079-.542v1.466c-.182.001-.36.006-.537.015h-.042c-1.059.058-2.11.219-3.138.482a15.903 15.903 0 0 0-3.738 1.457V4.469a14.973 14.973 0 0 1 3.922-1.595 15.017 15.017 0 0 1 3.696-.477h.216c.257.006.509.018.745.036.621.044 1.238.142 1.842.293v1.443a11.573 11.573 0 0 0-1.784-.269l-.036-.003c-.124-.01-.249-.021-.365-.021zm2.538 1.475c.32.024.651.036.986.036a15.871 15.871 0 0 0 3.886-.498 16.02 16.02 0 0 0 3.737-1.458v14.052a15.048 15.048 0 0 1-3.923 1.595c-1.208.311-2.449.47-3.696.475a11.231 11.231 0 0 1-2.804-.331V5.079c.216.05.44.096.666.134.372.063.765.109 1.147.137zm7.152.109-.51.172c-.469.157-.942.298-1.418.424a17.244 17.244 0 0 1-4.235.543c-.333 0-.639-.009-.934-.028l-.406-.027v11.475l.349.031c.324.028.658.042.994.042a13.506 13.506 0 0 0 3.335-.432c.897-.225 1.77-.539 2.607-.937l.218-.105V5.458zM7.303 23.664a.747.747 0 0 0-.567-.229.834.834 0 0 0-.327.062.73.73 0 0 0-.419.424c-.04.1-.06.208-.059.316v1.911a.896.896 0 0 0 .075.392.678.678 0 0 0 .453.392c.093.026.189.039.285.04a.817.817 0 0 0 .73-.5.759.759 0 0 0 .061-.305v-.214h-.5v.17a.429.429 0 0 1-.029.17.315.315 0 0 1-.072.108.302.302 0 0 1-.105.055.34.34 0 0 1-.105.018.257.257 0 0 1-.234-.103.453.453 0 0 1-.066-.256v-1.782a.608.608 0 0 1 .061-.285.256.256 0 0 1 .245-.116.259.259 0 0 1 .223.108.409.409 0 0 1 .083.256v.165h.495v-.195a.907.907 0 0 0-.061-.334.79.79 0 0 0-.167-.269zM10.271 23.642a.889.889 0 0 0-.568-.21.84.84 0 0 0-.298.054.782.782 0 0 0-.458.424.888.888 0 0 0-.072.37v1.834a.892.892 0 0 0 .072.375.75.75 0 0 0 .194.256.791.791 0 0 0 .264.162.868.868 0 0 0 .596 0 .817.817 0 0 0 .458-.418.877.877 0 0 0 .072-.375V24.28a.918.918 0 0 0-.072-.37.823.823 0 0 0-.188-.268zm-.233 2.472a.336.336 0 0 1-.1.265.367.367 0 0 1-.47 0 .328.328 0 0 1-.1-.265V24.28a.321.321 0 0 1 .1-.265.367.367 0 0 1 .47 0 .321.321 0 0 1 .1.265v1.834zM14.17 26.933v-3.471h-.48l-.631 1.837h-.009l-.636-1.837h-.475v3.471h.496v-2.111h.009l.486 1.493h.247l.489-1.493h.009v2.111h.496zM16.987 23.705a.698.698 0 0 0-.28-.19 1.096 1.096 0 0 0-.36-.054h-.737v3.471h.495v-1.356h.255a.907.907 0 0 0 .446-.095.72.72 0 0 0 .272-.265.835.835 0 0 0 .113-.303c.02-.131.028-.262.027-.395a1.921 1.921 0 0 0-.049-.496.734.734 0 0 0-.182-.319zm-.255 1.058a.432.432 0 0 1-.046.18.268.268 0 0 1-.128.121.505.505 0 0 1-.233.044h-.226v-1.18h.255a.462.462 0 0 1 .223.044.277.277 0 0 1 .116.128.497.497 0 0 1 .043.193v.231c0 .081.005.164 0 .239h-.005zM19.329 23.462h-.406l-.765 3.471h.494l.145-.745h.674l.145.745h.495l-.784-3.471zm-.457 2.252.244-1.258h.009l.242 1.258h-.495zM22.524 25.553h-.009l-.747-2.091h-.475v3.471h.494v-2.087h.01l.756 2.087h.465v-3.471h-.494v2.091zM25.546 23.462l-.398 1.38h-.01l-.398-1.38h-.524l.679 2.004v1.467h.495v-1.467l.679-2.004h-.524zM5.924 27.912h.239v.668h.162v-.668h.237v-.137h-.637v.137zM7.927 27.776l-.312.806h.172l.066-.183h.321l.069.183h.176l-.32-.806h-.172zm-.025.486.11-.298.11.298h-.219zM9.908 28.284h.186v.104a.307.307 0 0 1-.191.068.207.207 0 0 1-.171-.077.335.335 0 0 1-.06-.21c0-.18.077-.269.232-.269.041-.004.082.007.115.03s.057.059.067.098l.159-.031c-.034-.157-.148-.237-.342-.237a.405.405 0 0 0-.282.104.402.402 0 0 0-.116.31.442.442 0 0 0 .103.303.39.39 0 0 0 .306.118.486.486 0 0 0 .342-.128v-.318h-.349v.136zM11.931 27.776h-.163v.806h.565v-.137h-.401v-.668zM13.641 27.776h-.163v.806h.163v-.806zM15.313 28.313l-.33-.538h-.158v.806h.152v-.527l.324.527h.162v-.806h-.149v.538zM16.825 28.226h.401v-.137h-.401v-.177h.432v-.137h-.596v.806h.612v-.137h-.449v-.218zM20.49 28.093h-.317v-.318h-.162v.806h.162v-.352h.317v.352h.162v-.806h-.162v.318zM22.011 28.226h.403v-.137h-.403v-.177h.434v-.137h-.596v.806h.611v-.137h-.449v-.218zM24.073 28.226c.14-.022.211-.096.211-.224a.19.19 0 0 0-.079-.179.457.457 0 0 0-.236-.047h-.342v.806h.162v-.337h.032a.214.214 0 0 1 .1.018.17.17 0 0 1 .057.059l.176.256h.194l-.098-.157a.568.568 0 0 0-.178-.193zm-.163-.111h-.12v-.203h.128a.413.413 0 0 1 .164.019.104.104 0 0 1-.009.164.456.456 0 0 1-.164.019zM25.628 28.226h.401v-.137h-.401v-.177h.434v-.137h-.596v.806h.612v-.137h-.449v-.218z" style="fill:var(--color2, #afb1b8)"/></symbol><symbol id="icon-client-1" viewBox="0 0 32 32"><path fill="#afb1b8" d="M8.099 3.886 11.79 7.38l-6.851-.004v16.953h17.908v-6.482l3.687 3.49V3.885H8.099zm14.586 13.551L12.219 7.53h10.466v9.907zm-3.249 4.413H7.773V10.448h.824v10.63h10.839v.772zm-8.909 4.737-.431.887-.431-.887h-.361l.629 1.183v.689h.326v-.689l.627-1.183h-.36zm.541 1.872.152-.436h.725l.153.436h.34l-.709-1.872h-.292l-.707 1.872h.338zm.515-1.475.271.777h-.543l.272-.777zm1.715.731a.426.426 0 0 0-.071.238c0 .158.055.286.166.384s.26.146.445.146.345-.05.478-.151l.106.125h.363l-.275-.326a.938.938 0 0 0 .162-.567h-.271a.75.75 0 0 1-.078.343l-.361-.427.127-.092a.698.698 0 0 0 .194-.195.408.408 0 0 0 .059-.216.384.384 0 0 0-.131-.297.473.473 0 0 0-.334-.121.496.496 0 0 0-.36.129.458.458 0 0 0-.134.347c0 .06.014.122.043.186s.08.143.153.234c-.139.1-.232.186-.279.258zm.845.414a.48.48 0 0 1-.296.106c-.094 0-.168-.027-.224-.081s-.083-.124-.083-.211c0-.1.051-.189.154-.267l.04-.028.409.482zm-.336-.829c-.088-.109-.132-.2-.132-.271 0-.063.018-.114.054-.155s.085-.062.146-.062a.19.19 0 0 1 .14.053.163.163 0 0 1 .055.125.228.228 0 0 1-.08.181l-.04.032-.143.098zm3.048 1.017a.674.674 0 0 0 .221-.468h-.324c-.017.134-.058.229-.122.287s-.16.086-.288.086c-.14 0-.246-.053-.319-.16s-.108-.261-.108-.463v-.166c.002-.2.04-.351.116-.454a.383.383 0 0 1 .326-.155c.122 0 .214.03.277.09.063.059.103.156.118.291h.324c-.02-.205-.094-.363-.22-.475s-.292-.169-.499-.169a.707.707 0 0 0-.675.42c-.063.134-.094.29-.094.467v.175c.003.172.035.323.097.454a.694.694 0 0 0 .658.408c.214 0 .384-.056.513-.167zm1.912-.262c.063-.139.095-.3.095-.483v-.104a1.138 1.138 0 0 0-.098-.48.708.708 0 0 0-.274-.316c-.117-.074-.252-.111-.405-.111s-.288.037-.406.112c-.117.074-.209.18-.274.32s-.097.301-.097.483v.106c.001.179.034.337.098.475s.157.243.275.318a.754.754 0 0 0 .406.111.742.742 0 0 0 .406-.111.723.723 0 0 0 .272-.319zm-.348-1.059c.079.111.118.269.118.477v.098c0 .211-.039.371-.117.481a.38.38 0 0 1-.332.165c-.143 0-.254-.056-.334-.169s-.12-.271-.12-.477v-.108c.002-.201.042-.357.121-.467s.19-.166.331-.166c.144 0 .255.055.333.166z" style="fill:var(--color2, #afb1b8)"/></symbol><symbol id="icon-linkedin-1" viewBox="0 0 32 32"><path fill="#afb1b8" d="M31.992 32v-.001H32V20.263c0-5.741-1.236-10.164-7.948-10.164-3.227 0-5.392 1.771-6.276 3.449h-.093v-2.913h-6.364v21.364h6.627V21.42c0-2.785.528-5.479 3.977-5.479 3.399 0 3.449 3.179 3.449 5.657v10.401h6.62zM.528 10.636h6.635V32H.528V10.636zM3.843 0C1.722 0 0 1.721 0 3.843s1.721 3.879 3.843 3.879c2.121 0 3.843-1.757 3.843-3.879A3.846 3.846 0 0 0 3.843 0z" style="fill:var(--color2, #afb1b8)"/></symbol><symbol id="icon-facebook-1" viewBox="0 0 32 32"><path fill="#afb1b8" d="M21.329 5.313h2.921V.225C23.746.156 22.013 0 19.994 0c-4.212 0-7.097 2.649-7.097 7.519V12H8.249v5.688h4.648V32h5.699V17.689h4.46l.708-5.688h-5.169V8.082c.001-1.644.444-2.769 2.735-2.769z" style="fill:var(--color2, #afb1b8)"/></symbol><symbol id="icon-twitter-1" viewBox="0 0 32 32"><path fill="#afb1b8" d="M32 6.078c-1.19.522-2.458.868-3.78 1.036a6.523 6.523 0 0 0 2.886-3.626 13.11 13.11 0 0 1-4.16 1.588A6.574 6.574 0 0 0 22.154 3c-3.632 0-6.556 2.948-6.556 6.562 0 .52.044 1.02.152 1.496-5.454-.266-10.28-2.88-13.522-6.862a6.605 6.605 0 0 0-.898 3.316 6.57 6.57 0 0 0 2.914 5.452 6.479 6.479 0 0 1-2.964-.808v.072c0 3.188 2.274 5.836 5.256 6.446a6.548 6.548 0 0 1-1.72.216 5.8 5.8 0 0 1-1.242-.112c.85 2.598 3.262 4.508 6.13 4.57a13.182 13.182 0 0 1-8.134 2.798c-.538 0-1.054-.024-1.57-.09A18.469 18.469 0 0 0 10.064 29c12.072 0 18.672-10 18.672-18.668 0-.29-.01-.57-.024-.848A13.087 13.087 0 0 0 32 6.078z" style="fill:var(--color2, #afb1b8)"/></symbol><symbol id="icon-astronaut-1" viewBox="0 0 32 32"><path fill="#2196f3" d="M31.974 4.524a.534.534 0 0 0-.43-.363l-1.91-.278-.855-1.731c-.179-.365-.777-.365-.956 0l-.855 1.731-1.91.278a.535.535 0 0 0-.296.91l1.383 1.348-.326 1.903c-.034.2.048.402.212.522a.53.53 0 0 0 .562.04l1.709-.899 1.709.899a.536.536 0 0 0 .775-.563l-.326-1.903 1.383-1.348a.536.536 0 0 0 .135-.547zm-2.463 1.327a.534.534 0 0 0-.153.472l.191 1.114-1-.526a.533.533 0 0 0-.498 0l-1.001.526.191-1.114a.534.534 0 0 0-.153-.472l-.81-.789 1.119-.163a.532.532 0 0 0 .402-.292l.5-1.013.5 1.013a.535.535 0 0 0 .402.292l1.119.163-.809.789zM26.134 20.522h-1.067v1.067h1.067v-1.067zM26.134 22.656h-1.067v1.067h1.067v-1.067zM27.2 21.589h-1.067v1.067H27.2v-1.067zM25.067 21.589H24v1.067h1.067v-1.067zM22.4 26.389h-1.067v1.067H22.4v-1.067zM22.4 28.522h-1.067v1.067H22.4v-1.067zM23.467 27.456H22.4v1.067h1.067v-1.067zM21.333 27.456h-1.067v1.067h1.067v-1.067zM16 24.256h-1.067v1.067H16v-1.067zM16 26.389h-1.067v1.067H16v-1.067zM17.067 25.322H16v1.067h1.067v-1.067zM14.933 25.322h-1.067v1.067h1.067v-1.067zM5.867 6.122H4.8v1.067h1.067V6.122zM5.867 8.255H4.8v1.067h1.067V8.255z" style="fill:var(--color3, #2196f3)"/><path fill="#2196f3" d="M6.933 7.189H5.866v1.067h1.067V7.189zM4.8 7.189H3.733v1.067H4.8V7.189z" style="fill:var(--color3, #2196f3)"/><path fill="#212121" d="M24.715 14.159a1.775 1.775 0 0 0-1.188-.705 1.778 1.778 0 0 0-1.34.352l-1.252.96-1.898 1.417-1.358-.541c2.421-1.086 4.114-3.508 4.114-6.32 0-3.823-3.123-6.933-6.961-6.933s-6.961 3.11-6.961 6.933a6.86 6.86 0 0 0 1.12 3.758l-2.764-.024h-.005c-.009 0-.015.004-.023.005a.515.515 0 0 0-.155.031l-.038.013c-.006.003-.013.003-.019.006l-3.233 1.596-.001.001-1.893.911a.397.397 0 0 0-.063.035 1.779 1.779 0 0 0-.598 2.295c.22.429.595.745 1.056.889a1.776 1.776 0 0 0 1.378-.128l1.388-.738 2.264-1.169 1.357-.008L2.2 22.211l-.002.001-1.339 1.333c-.316.315-.49.732-.49 1.178s.174.863.49 1.179c.325.323.752.485 1.179.485s.854-.162 1.18-.485l1.314-1.309 1.741-1.3.901.897-1.762 1.754-.002.001-1.339 1.333c-.316.315-.49.732-.49 1.178s.174.863.49 1.179c.325.323.753.485 1.18.485s.855-.162 1.18-.485l3.482-3.467.001-.002 1.01-1-.004-.004c.006-.006.015-.009.022-.015l5.166-5.658 3.471.494a.52.52 0 0 0 .262-.033c.018-.006.033-.015.05-.023.019-.01.039-.015.058-.027l3.213-2.133c.012-.008.018-.021.029-.029.013-.01.029-.014.041-.026l1.271-1.191c.662-.62.753-1.635.212-2.362zM2.13 17.77a.714.714 0 0 1-.558.052.717.717 0 0 1-.213-1.26l1.314-.632.449 1.312-.992.528zm3.498-1.828-1.548.8-.439-1.283 2.027-1.001-.04 1.484zm15.099-6.62a5.79 5.79 0 0 1-.599 2.559l-4.181-1.899a1.863 1.863 0 0 0-.788-1.388l1.464-4.86c2.378.756 4.105 2.974 4.105 5.588zm-11.789 0c0-3.235 2.644-5.867 5.894-5.867.253 0 .5.021.745.052l-1.432 4.754c-.019-.001-.037-.006-.057-.006-1.033 0-1.873.837-1.873 1.867s.84 1.867 1.873 1.867c.694 0 1.294-.383 1.618-.945l3.862 1.755a5.894 5.894 0 0 1-4.737 2.39c-3.25 0-5.894-2.632-5.894-5.867zm5.956.8c0 .441-.362.8-.806.8s-.806-.359-.806-.8c0-.441.362-.8.806-.8s.806.359.806.8zM2.465 25.146a.608.608 0 0 1-.854.001.592.592 0 0 1 0-.844l.962-.958.851.848-.959.955zm3.214 3.734a.608.608 0 0 1-.855.001.592.592 0 0 1 0-.844l.963-.959.852.848-.96.955zm3.481-3.469-.002.001-1.765 1.76-.852-.848 1.763-1.755.002-.001c.04-.04.065-.088.09-.135.007-.014.02-.026.026-.04.017-.041.019-.085.026-.129.003-.025.014-.047.014-.073 0-.036-.013-.07-.02-.106-.006-.032-.006-.065-.019-.095a.55.55 0 0 0-.091-.138c-.01-.012-.014-.027-.025-.038h-.001l-.001-.002-1.607-1.6c-.017-.017-.039-.024-.058-.038a.507.507 0 0 0-.087-.058.515.515 0 0 0-.093-.033.507.507 0 0 0-.103-.02.5.5 0 0 0-.095.005.53.53 0 0 0-.104.02.477.477 0 0 0-.094.045c-.02.011-.042.015-.061.029L4.23 23.486l-.901-.897 2.399-2.386 4.361 4.289-.928.919zm6.819-7.017c-.015-.002-.03.004-.045.003a.556.556 0 0 0-.3.075.492.492 0 0 0-.083.061c-.013.011-.028.017-.04.029l-4.698 5.146-4.328-4.257 2.833-2.818a.534.534 0 0 0-.379-.911v-.001l-2.219.013.028-1.607 3.104.027a6.947 6.947 0 0 0 4.981 2.101c.437 0 .864-.045 1.279-.123.04.032.079.065.13.085l2.41.96.331 1.644-3.003-.427zm4.041.178-.313-1.558 1.446-1.08.947 1.257-2.08 1.381zm3.754-2.831-.838.785-.931-1.236.831-.637a.735.735 0 0 1 .543-.143.718.718 0 0 1 .48.284.713.713 0 0 1-.085.947z" style="fill:var(--color4, #212121)"/><path fill="#212121" d="m13.602 18.544-2.143-2.133a.534.534 0 0 0-.753 0l-2.142 2.133a.537.537 0 0 0 0 .756l2.142 2.133a.536.536 0 0 0 .753 0l2.143-2.133a.535.535 0 0 0 0-.756zm-2.519 1.759-1.387-1.381 1.387-1.381 1.387 1.381-1.387 1.381zM17.164 5.071l-.258 1.036c.071.018 1.738.452 1.738 2.149h1.067c0-2.017-1.666-2.965-2.547-3.185zM19.711 9.322h-1.067v1.067h1.067V9.322z" style="fill:var(--color4, #212121)"/></symbol><symbol id="icon-diagram-1" viewBox="0 0 32 32"><path fill="#2196f3" d="M14.926 14.965h1.066v4.798h-1.066v-4.797zM19.19 17.097h1.066v2.665H19.19v-2.665zM10.661 18.696h1.066v1.066h-1.066v-1.066zM7.463 18.163h1.066v1.599H7.463v-1.599z" style="fill:var(--color3, #2196f3)"/><path fill="#212121" d="M1.599 28.291h25.587a1.6 1.6 0 0 0 1.599-1.599V24.56a1.6 1.6 0 0 0-1.599-1.599h-.533V9.668L29.681 6.8a1.608 1.608 0 1 0-.746-.763L26.654 8.2V6.97a1.6 1.6 0 0 0-1.599-1.599H3.733A1.6 1.6 0 0 0 2.134 6.97v15.992h-.533a1.6 1.6 0 0 0-1.599 1.599v2.132a1.6 1.6 0 0 0 1.599 1.599zM30.384 4.837a.533.533 0 1 1 0 1.067.533.533 0 0 1 0-1.067zM3.198 6.969c0-.294.239-.533.533-.533h21.322c.294 0 .533.239.533.533v2.239l-1.066 1.013V8.035a.533.533 0 0 0-.533-.533H4.797a.533.533 0 0 0-.533.533v13.326c0 .294.239.533.533.533h19.19a.533.533 0 0 0 .533-.533v-9.674l1.066-1.01v12.284H3.198V6.969zm4.798 6.93a1.598 1.598 0 1 0 1.107 2.749l1.853.93a.532.532 0 0 0 .636-.123l3.939-4.431 3.872 2.901a.533.533 0 0 0 .686-.039l3.365-3.188v8.131H5.33V8.569h18.124v2.66l-3.771 3.572-3.904-2.927a.533.533 0 0 0-.718.072l-3.993 4.493-1.493-.746c.011-.064.018-.129.02-.193a1.6 1.6 0 0 0-1.599-1.599zm.533 1.599a.533.533 0 1 1-1.067 0 .533.533 0 0 1 1.067 0zm3.198 8.529h5.331v.533a.533.533 0 0 1-.533.533h-4.264a.533.533 0 0 1-.533-.533v-.533zm-10.661.533c0-.294.239-.533.533-.533h9.062v.533a1.6 1.6 0 0 0 1.599 1.599h4.264a1.6 1.6 0 0 0 1.599-1.599v-.533h9.062c.294 0 .533.239.533.533v2.132a.533.533 0 0 1-.533.533H1.598a.533.533 0 0 1-.533-.533V24.56z" style="fill:var(--color4, #212121)"/></symbol><symbol id="icon-clock-1" viewBox="0 0 32 32"><path fill="#212121" d="M31.297 15.301C31.295 6.849 24.442-.002 15.989 0S.686 6.855.688 15.308a15.304 15.304 0 0 0 10.649 14.576.662.662 0 0 0 .529-.065.637.637 0 0 0 .283-.356l3.865-12.25a1.912 1.912 0 1 0-.84-3.635l-5.106-5.107a.637.637 0 0 0-.902.902l5.103 5.109a1.876 1.876 0 0 0 .536 2.309l-3.683 11.673C3.844 25.783.118 17.71 2.799 10.432S13.553-.572 20.831 2.109s11.004 10.754 8.323 18.032a14.042 14.042 0 0 1-7.462 7.973l-.398-1.874a.638.638 0 0 0-1.048-.344l-3.837 3.426a.637.637 0 0 0 .231 1.084l4.899 1.563a.638.638 0 0 0 .819-.74l-.391-1.839a15.255 15.255 0 0 0 9.329-14.089zm-15.305-.637a.638.638 0 1 1 0 1.277.638.638 0 0 1 0-1.277zm2.101 14.864 2.184-1.948.603 2.84-2.787-.892z" style="fill:var(--color4, #212121)"/><path fill="#2196f3" d="M15.354 3.185V4.46a.638.638 0 1 0 1.276 0V3.185a.638.638 0 0 0-1.276 0zM3.876 14.664a.638.638 0 0 0 0 1.276h1.275a.638.638 0 1 0 0-1.276H3.876zM28.108 15.939a.638.638 0 1 0 0-1.276h-1.275a.638.638 0 0 0 0 1.276h1.275z" style="fill:var(--color3, #2196f3)"/></symbol><symbol id="icon-antenna-1" viewBox="0 0 32 32"><path fill="#212121" d="m30.773 22.098-8.443-8.505.937-4.615c.242.094.499.144.758.146h.006a2.159 2.159 0 1 0-2.008-1.435l-4.96.605L8.972.161a.534.534 0 0 0-.377-.16.532.532 0 0 0-.373.155L6.709 1.66a.534.534 0 0 0 0 .754l.814.826a14.943 14.943 0 0 0 2.519 17.663.513.513 0 0 0 .146.098c-.034.18-.051.364-.052.547v6.187h-6.4a2.67 2.67 0 0 0-2.667 2.667v1.067c0 .295.239.533.533.533h24.533a.533.533 0 0 0 .533-.533v-1.067a2.67 2.67 0 0 0-2.667-2.667h-6.4v-2.742a15.09 15.09 0 0 0 3.049.32 14.854 14.854 0 0 0 7.04-1.783l.818.823a.534.534 0 0 0 .377.16.532.532 0 0 0 .373-.155l1.513-1.504a.534.534 0 0 0 0-.754zM23.28 6.233a1.066 1.066 0 1 1 .752 1.822h-.003a1.067 1.067 0 0 1-.747-1.823h-.002zm-1.256 3.505-.598 2.946-1.175-1.182 1.774-1.763zm-.605-.902-1.92 1.909-1.485-1.493 3.405-.415zM24.004 28.8a1.6 1.6 0 0 1 1.6 1.6v.533H2.137V30.4a1.6 1.6 0 0 1 1.6-1.6h20.267zm-7.467-2.133v1.067h-5.333v-1.067h5.333zM11.204 25.6v-4.053c0-1.294 1.196-2.347 2.667-2.347s2.667 1.053 2.667 2.347V25.6h-5.333zm6.4-1.696v-2.357c0-1.882-1.675-3.413-3.733-3.413a3.8 3.8 0 0 0-3.281 1.786A13.87 13.87 0 0 1 8.311 4.033l18.602 18.708a13.818 13.818 0 0 1-9.309 1.163zm11.289-.684L7.836 2.039l.755-.752 7.935 7.98c.004 0 .006.007.01.01l13.115 13.191-.757.752z" style="fill:var(--color4, #212121)"/><path fill="#2196f3" d="M13.876 20.267h-.005a1.6 1.6 0 1 0-.004 3.2h.005a1.6 1.6 0 1 0 .004-3.2zm.373 1.978a.534.534 0 0 1-.752-.756.534.534 0 0 1 .373-.155.532.532 0 0 1 .373.911h.005z" style="fill:var(--color3, #2196f3)"/></symbol><symbol id="icon-smartphone" viewBox="0 0 32 32"><path fill="#757575" d="M23 0H9C7.346 0 6 1.346 6 3v26c0 1.654 1.346 3 3 3h14c1.654 0 3-1.346 3-3V3c0-1.654-1.346-3-3-3zM9 2h14a1 1 0 0 1 1 1v21H8V3a1 1 0 0 1 1-1zm14 28H9a1 1 0 0 1-1-1v-3h16v3a1 1 0 0 1-1 1z" style="fill:var(--color1, #757575)"/><path fill="#757575" d="M10.707 27.478c.391.365.391.956 0 1.321s-1.024.365-1.414 0c-.391-.365-.391-.956 0-1.321s1.024-.365 1.414 0z" style="fill:var(--color1, #757575)"/></symbol></defs></svg>